<mxfile host="app.diagrams.net" modified="2023-06-21T16:57:51.619Z" agent="Mozilla/5.0 (Windows NT 10.0; Win64; x64) AppleWebKit/537.36 (KHTML, like Gecko) Chrome/114.0.0.0 Safari/537.36" etag="mU0PhAxUucF8WKSjAxME" version="21.3.7" type="github">
  <diagram name="Page-1" id="Uer-U6X-fsnXKGnIOk1K">
    <mxGraphModel dx="1303" dy="1935" grid="1" gridSize="10" guides="1" tooltips="1" connect="1" arrows="1" fold="1" page="1" pageScale="1" pageWidth="850" pageHeight="1100" math="0" shadow="0">
      <root>
        <mxCell id="0" />
        <mxCell id="1" parent="0" />
        <mxCell id="LFllWg6S086V3_-8uHDv-35" value="" style="rounded=1;whiteSpace=wrap;html=1;gradientColor=none;strokeColor=#66FFFF;strokeWidth=5;" vertex="1" parent="1">
          <mxGeometry x="50" y="-10" width="730" height="730" as="geometry" />
        </mxCell>
        <mxCell id="LFllWg6S086V3_-8uHDv-1" value="Admin" style="shape=umlActor;verticalLabelPosition=bottom;verticalAlign=top;html=1;outlineConnect=0;" vertex="1" parent="1">
          <mxGeometry x="70" y="250" width="30" height="60" as="geometry" />
        </mxCell>
        <mxCell id="LFllWg6S086V3_-8uHDv-2" value="View and edit Class&lt;br&gt;information" style="ellipse;whiteSpace=wrap;html=1;" vertex="1" parent="1">
          <mxGeometry x="190" y="240" width="120" height="80" as="geometry" />
        </mxCell>
        <mxCell id="LFllWg6S086V3_-8uHDv-3" value="Select&lt;br&gt;Date" style="ellipse;whiteSpace=wrap;html=1;" vertex="1" parent="1">
          <mxGeometry x="390" y="240" width="120" height="80" as="geometry" />
        </mxCell>
        <mxCell id="LFllWg6S086V3_-8uHDv-4" value="Error 004:&lt;br&gt;DateCheck" style="ellipse;whiteSpace=wrap;html=1;" vertex="1" parent="1">
          <mxGeometry x="630" y="240" width="120" height="80" as="geometry" />
        </mxCell>
        <mxCell id="LFllWg6S086V3_-8uHDv-5" value="Select&amp;nbsp;&lt;br&gt;Class&lt;br&gt;Title" style="ellipse;whiteSpace=wrap;html=1;" vertex="1" parent="1">
          <mxGeometry x="390" y="160" width="120" height="80" as="geometry" />
        </mxCell>
        <mxCell id="LFllWg6S086V3_-8uHDv-6" value="Select&lt;br&gt;Price" style="ellipse;whiteSpace=wrap;html=1;" vertex="1" parent="1">
          <mxGeometry x="390" y="320" width="120" height="80" as="geometry" />
        </mxCell>
        <mxCell id="LFllWg6S086V3_-8uHDv-7" value="Enter&lt;br&gt;Availability" style="ellipse;whiteSpace=wrap;html=1;" vertex="1" parent="1">
          <mxGeometry x="390" y="400" width="120" height="80" as="geometry" />
        </mxCell>
        <mxCell id="LFllWg6S086V3_-8uHDv-8" value="Open a File" style="ellipse;whiteSpace=wrap;html=1;" vertex="1" parent="1">
          <mxGeometry x="230" y="60" width="120" height="80" as="geometry" />
        </mxCell>
        <mxCell id="LFllWg6S086V3_-8uHDv-9" value="Error 001:&lt;br&gt;File in Wrong&amp;nbsp;&lt;br&gt;Format" style="ellipse;whiteSpace=wrap;html=1;" vertex="1" parent="1">
          <mxGeometry x="540" y="20" width="120" height="80" as="geometry" />
        </mxCell>
        <mxCell id="LFllWg6S086V3_-8uHDv-10" value="Error 002:&lt;br&gt;File Open Error" style="ellipse;whiteSpace=wrap;html=1;" vertex="1" parent="1">
          <mxGeometry x="540" y="120" width="120" height="80" as="geometry" />
        </mxCell>
        <mxCell id="LFllWg6S086V3_-8uHDv-11" value="" style="endArrow=none;html=1;rounded=0;entryX=0;entryY=0.5;entryDx=0;entryDy=0;exitX=0.5;exitY=0;exitDx=0;exitDy=0;" edge="1" parent="1" source="LFllWg6S086V3_-8uHDv-2" target="LFllWg6S086V3_-8uHDv-5">
          <mxGeometry width="50" height="50" relative="1" as="geometry">
            <mxPoint x="340" y="240" as="sourcePoint" />
            <mxPoint x="430" y="240" as="targetPoint" />
          </mxGeometry>
        </mxCell>
        <mxCell id="LFllWg6S086V3_-8uHDv-12" value="" style="endArrow=none;html=1;rounded=0;exitX=1;exitY=0.5;exitDx=0;exitDy=0;entryX=0;entryY=0.5;entryDx=0;entryDy=0;" edge="1" parent="1" source="LFllWg6S086V3_-8uHDv-2" target="LFllWg6S086V3_-8uHDv-3">
          <mxGeometry width="50" height="50" relative="1" as="geometry">
            <mxPoint x="380" y="290" as="sourcePoint" />
            <mxPoint x="430" y="240" as="targetPoint" />
          </mxGeometry>
        </mxCell>
        <mxCell id="LFllWg6S086V3_-8uHDv-13" value="" style="endArrow=none;html=1;rounded=0;exitX=1;exitY=1;exitDx=0;exitDy=0;entryX=0;entryY=0.5;entryDx=0;entryDy=0;" edge="1" parent="1" source="LFllWg6S086V3_-8uHDv-2" target="LFllWg6S086V3_-8uHDv-6">
          <mxGeometry width="50" height="50" relative="1" as="geometry">
            <mxPoint x="380" y="290" as="sourcePoint" />
            <mxPoint x="430" y="240" as="targetPoint" />
          </mxGeometry>
        </mxCell>
        <mxCell id="LFllWg6S086V3_-8uHDv-14" value="" style="endArrow=none;html=1;rounded=0;exitX=0.5;exitY=1;exitDx=0;exitDy=0;entryX=0;entryY=0.5;entryDx=0;entryDy=0;" edge="1" parent="1" source="LFllWg6S086V3_-8uHDv-2" target="LFllWg6S086V3_-8uHDv-7">
          <mxGeometry width="50" height="50" relative="1" as="geometry">
            <mxPoint x="380" y="290" as="sourcePoint" />
            <mxPoint x="430" y="240" as="targetPoint" />
          </mxGeometry>
        </mxCell>
        <mxCell id="LFllWg6S086V3_-8uHDv-15" value="" style="endArrow=classic;html=1;rounded=0;entryX=0;entryY=0.5;entryDx=0;entryDy=0;dashed=1;" edge="1" parent="1" target="LFllWg6S086V3_-8uHDv-4">
          <mxGeometry relative="1" as="geometry">
            <mxPoint x="510" y="280" as="sourcePoint" />
            <mxPoint x="620" y="280" as="targetPoint" />
          </mxGeometry>
        </mxCell>
        <mxCell id="LFllWg6S086V3_-8uHDv-16" value="&amp;lt;&amp;lt;extend&amp;gt;&amp;gt;" style="edgeLabel;resizable=0;html=1;align=center;verticalAlign=middle;" connectable="0" vertex="1" parent="LFllWg6S086V3_-8uHDv-15">
          <mxGeometry relative="1" as="geometry" />
        </mxCell>
        <mxCell id="LFllWg6S086V3_-8uHDv-17" value="" style="endArrow=classic;html=1;rounded=0;dashed=1;exitX=0;exitY=0.5;exitDx=0;exitDy=0;" edge="1" parent="1" source="LFllWg6S086V3_-8uHDv-10">
          <mxGeometry relative="1" as="geometry">
            <mxPoint x="520" y="290" as="sourcePoint" />
            <mxPoint x="350" y="110" as="targetPoint" />
          </mxGeometry>
        </mxCell>
        <mxCell id="LFllWg6S086V3_-8uHDv-18" value="&amp;lt;&amp;lt;extend&amp;gt;&amp;gt;" style="edgeLabel;resizable=0;html=1;align=center;verticalAlign=middle;" connectable="0" vertex="1" parent="LFllWg6S086V3_-8uHDv-17">
          <mxGeometry relative="1" as="geometry" />
        </mxCell>
        <mxCell id="LFllWg6S086V3_-8uHDv-19" value="" style="endArrow=classic;html=1;rounded=0;dashed=1;entryX=1;entryY=0.5;entryDx=0;entryDy=0;" edge="1" parent="1" source="LFllWg6S086V3_-8uHDv-9" target="LFllWg6S086V3_-8uHDv-8">
          <mxGeometry relative="1" as="geometry">
            <mxPoint x="530" y="300" as="sourcePoint" />
            <mxPoint x="490" y="140" as="targetPoint" />
          </mxGeometry>
        </mxCell>
        <mxCell id="LFllWg6S086V3_-8uHDv-20" value="&amp;lt;&amp;lt;extend&amp;gt;&amp;gt;" style="edgeLabel;resizable=0;html=1;align=center;verticalAlign=middle;" connectable="0" vertex="1" parent="LFllWg6S086V3_-8uHDv-19">
          <mxGeometry relative="1" as="geometry" />
        </mxCell>
        <mxCell id="LFllWg6S086V3_-8uHDv-22" value="Exit&lt;br&gt;Save Edited Information" style="ellipse;whiteSpace=wrap;html=1;" vertex="1" parent="1">
          <mxGeometry x="270" y="460" width="120" height="80" as="geometry" />
        </mxCell>
        <mxCell id="LFllWg6S086V3_-8uHDv-23" value="Error 003:&lt;br&gt;File save error" style="ellipse;whiteSpace=wrap;html=1;" vertex="1" parent="1">
          <mxGeometry x="190" y="600" width="120" height="80" as="geometry" />
        </mxCell>
        <mxCell id="LFllWg6S086V3_-8uHDv-24" value="Verify&amp;nbsp;&lt;br&gt;Information" style="ellipse;whiteSpace=wrap;html=1;" vertex="1" parent="1">
          <mxGeometry x="540" y="600" width="120" height="80" as="geometry" />
        </mxCell>
        <mxCell id="LFllWg6S086V3_-8uHDv-25" value="Save new File" style="ellipse;whiteSpace=wrap;html=1;" vertex="1" parent="1">
          <mxGeometry x="540" y="440" width="120" height="80" as="geometry" />
        </mxCell>
        <mxCell id="LFllWg6S086V3_-8uHDv-26" value="" style="endArrow=classic;html=1;rounded=0;dashed=1;exitX=1;exitY=1;exitDx=0;exitDy=0;" edge="1" parent="1">
          <mxGeometry relative="1" as="geometry">
            <mxPoint x="373.42640687119297" y="528.2842712474621" as="sourcePoint" />
            <mxPoint x="552.6190884019688" y="616.3423736238701" as="targetPoint" />
          </mxGeometry>
        </mxCell>
        <mxCell id="LFllWg6S086V3_-8uHDv-27" value="&amp;lt;&amp;lt;include&amp;gt;&amp;gt;" style="edgeLabel;resizable=0;html=1;align=center;verticalAlign=middle;" connectable="0" vertex="1" parent="LFllWg6S086V3_-8uHDv-26">
          <mxGeometry relative="1" as="geometry" />
        </mxCell>
        <mxCell id="LFllWg6S086V3_-8uHDv-28" value="" style="endArrow=classic;html=1;rounded=0;entryX=0;entryY=0.5;entryDx=0;entryDy=0;dashed=1;exitX=1;exitY=0.5;exitDx=0;exitDy=0;" edge="1" parent="1" source="LFllWg6S086V3_-8uHDv-23" target="LFllWg6S086V3_-8uHDv-24">
          <mxGeometry relative="1" as="geometry">
            <mxPoint x="530" y="300" as="sourcePoint" />
            <mxPoint x="650" y="300" as="targetPoint" />
          </mxGeometry>
        </mxCell>
        <mxCell id="LFllWg6S086V3_-8uHDv-29" value="&amp;lt;&amp;lt;extend&amp;gt;&amp;gt;" style="edgeLabel;resizable=0;html=1;align=center;verticalAlign=middle;" connectable="0" vertex="1" parent="LFllWg6S086V3_-8uHDv-28">
          <mxGeometry relative="1" as="geometry" />
        </mxCell>
        <mxCell id="LFllWg6S086V3_-8uHDv-30" value="" style="endArrow=classic;html=1;rounded=0;dashed=1;exitX=0.5;exitY=0;exitDx=0;exitDy=0;entryX=0.5;entryY=1;entryDx=0;entryDy=0;" edge="1" parent="1" source="LFllWg6S086V3_-8uHDv-24" target="LFllWg6S086V3_-8uHDv-25">
          <mxGeometry relative="1" as="geometry">
            <mxPoint x="383.42640687119297" y="538.2842712474621" as="sourcePoint" />
            <mxPoint x="562.6190884019688" y="626.3423736238701" as="targetPoint" />
          </mxGeometry>
        </mxCell>
        <mxCell id="LFllWg6S086V3_-8uHDv-31" value="&amp;lt;&amp;lt;include&amp;gt;&amp;gt;" style="edgeLabel;resizable=0;html=1;align=center;verticalAlign=middle;" connectable="0" vertex="1" parent="LFllWg6S086V3_-8uHDv-30">
          <mxGeometry relative="1" as="geometry" />
        </mxCell>
        <mxCell id="LFllWg6S086V3_-8uHDv-32" value="" style="endArrow=none;html=1;rounded=0;entryX=0;entryY=0.5;entryDx=0;entryDy=0;" edge="1" parent="1" source="LFllWg6S086V3_-8uHDv-1" target="LFllWg6S086V3_-8uHDv-2">
          <mxGeometry width="50" height="50" relative="1" as="geometry">
            <mxPoint x="380" y="470" as="sourcePoint" />
            <mxPoint x="430" y="420" as="targetPoint" />
          </mxGeometry>
        </mxCell>
        <mxCell id="LFllWg6S086V3_-8uHDv-33" value="" style="endArrow=none;html=1;rounded=0;" edge="1" parent="1" target="LFllWg6S086V3_-8uHDv-23">
          <mxGeometry width="50" height="50" relative="1" as="geometry">
            <mxPoint x="100" y="280" as="sourcePoint" />
            <mxPoint x="430" y="440" as="targetPoint" />
          </mxGeometry>
        </mxCell>
        <mxCell id="LFllWg6S086V3_-8uHDv-34" value="" style="endArrow=none;html=1;rounded=0;" edge="1" parent="1" target="LFllWg6S086V3_-8uHDv-22">
          <mxGeometry width="50" height="50" relative="1" as="geometry">
            <mxPoint x="100" y="280" as="sourcePoint" />
            <mxPoint x="430" y="440" as="targetPoint" />
          </mxGeometry>
        </mxCell>
        <mxCell id="LFllWg6S086V3_-8uHDv-36" value="Seat Booking App" style="text;html=1;strokeColor=none;fillColor=none;align=center;verticalAlign=middle;whiteSpace=wrap;rounded=0;fontStyle=1;labelBackgroundColor=none;" vertex="1" parent="1">
          <mxGeometry x="160" y="10" width="110" height="30" as="geometry" />
        </mxCell>
        <mxCell id="LFllWg6S086V3_-8uHDv-37" value="" style="endArrow=none;html=1;rounded=0;entryX=0;entryY=1;entryDx=0;entryDy=0;" edge="1" parent="1" target="LFllWg6S086V3_-8uHDv-8">
          <mxGeometry width="50" height="50" relative="1" as="geometry">
            <mxPoint x="100" y="280" as="sourcePoint" />
            <mxPoint x="710" y="360" as="targetPoint" />
          </mxGeometry>
        </mxCell>
      </root>
    </mxGraphModel>
  </diagram>
</mxfile>
